<?xml version="1.0" standalone="no"?>
<!DOCTYPE svg PUBLIC "-//W3C//DTD SVG 20010904//EN"
 "http://www.w3.org/TR/2001/REC-SVG-20010904/DTD/svg10.dtd">
<svg version="1.0" xmlns="http://www.w3.org/2000/svg"
 width="860.000000pt" height="411.000000pt" viewBox="0 0 860.000000 411.000000"
 preserveAspectRatio="xMidYMid meet">

<g transform="translate(0.000000,411.000000) scale(0.100000,-0.100000)"
fill="#000000" stroke="none">
<path d="M3950 2980 l0 -730 75 0 75 0 0 730 0 730 -75 0 -75 0 0 -730z"/>
<path d="M521 3615 c-16 -14 -43 -52 -58 -83 l-28 -57 -5 -280 c-6 -321 -9
-336 -86 -381 -43 -26 -44 -27 -44 -80 0 -52 1 -54 40 -74 26 -13 48 -35 62
-63 22 -40 23 -56 28 -322 l5 -280 28 -57 c15 -31 42 -69 58 -83 27 -22 39
-25 110 -25 l79 0 0 65 0 65 -49 0 c-80 0 -81 4 -81 270 0 125 -5 253 -11 285
-12 68 -46 140 -89 188 l-29 34 23 22 c34 32 82 127 95 189 6 30 11 154 11
285 0 274 1 277 81 277 l49 0 0 65 0 65 -79 0 c-71 0 -83 -3 -110 -25z"/>
<path d="M7880 3575 l0 -65 49 0 c80 0 81 -3 81 -277 0 -131 5 -255 11 -285
13 -62 61 -157 95 -189 l23 -22 -29 -34 c-43 -48 -77 -120 -89 -188 -6 -32
-11 -160 -11 -285 0 -266 -1 -270 -81 -270 l-49 0 0 -65 0 -65 79 0 c71 0 83
3 110 25 16 14 43 52 58 83 l28 57 5 280 c5 266 6 282 28 322 14 28 36 50 62
63 39 20 40 22 40 74 0 53 -1 54 -44 80 -77 45 -80 60 -86 381 l-5 280 -28 57
c-15 31 -42 69 -58 83 -27 22 -39 25 -110 25 l-79 0 0 -65z"/>
<path d="M5615 3099 c-82 -12 -153 -49 -212 -112 -93 -98 -127 -196 -121 -351
3 -91 7 -108 39 -176 43 -90 107 -158 187 -197 51 -25 67 -28 162 -28 95 0
110 3 160 28 30 16 72 45 93 65 l37 36 0 -104 c0 -133 -19 -205 -72 -264 -51
-59 -113 -80 -212 -74 -133 9 -222 85 -242 207 l-7 41 -70 0 -70 0 7 -52 c9
-73 56 -168 106 -218 23 -23 72 -56 108 -73 64 -30 73 -32 187 -32 113 0 124
2 185 31 129 61 202 170 220 325 6 46 10 274 10 507 l0 422 -75 0 -75 0 0 -57
0 -57 -42 41 c-64 61 -107 80 -223 97 -11 2 -47 -1 -80 -5z m219 -163 c164
-96 184 -376 36 -509 -142 -128 -363 -67 -427 117 -26 76 -24 197 5 261 28 61
84 121 137 147 61 29 186 21 249 -16z"/>
<path d="M1744 3081 c-23 -10 -57 -35 -77 -55 -20 -20 -39 -36 -42 -36 -3 0
-5 20 -5 45 l0 45 -70 0 -70 0 0 -415 0 -415 70 0 70 0 0 223 c0 335 21 426
106 474 56 32 158 32 205 0 68 -45 78 -107 79 -454 l0 -243 70 0 70 0 0 266
c0 265 -9 375 -36 440 -23 55 -80 111 -131 128 -65 22 -187 21 -239 -3z"/>
<path d="M2645 3082 c-162 -57 -268 -182 -297 -350 -21 -124 18 -259 102 -355
189 -214 544 -190 695 48 143 225 63 516 -173 632 -71 35 -83 38 -176 41 -77
2 -113 -2 -151 -16z m277 -145 c205 -120 201 -436 -6 -545 -44 -23 -63 -27
-136 -27 -73 0 -92 4 -136 27 -99 52 -158 154 -158 273 1 123 63 227 167 280
47 24 61 26 138 23 71 -3 93 -9 131 -31z"/>
<path d="M4595 3087 c-119 -40 -216 -125 -268 -234 -27 -58 -32 -82 -35 -164
-5 -117 11 -179 67 -267 52 -80 139 -145 233 -173 102 -31 219 -24 311 18 230
108 322 378 206 605 -35 69 -125 155 -198 190 -59 29 -77 32 -171 35 -67 2
-119 -2 -145 -10z m250 -141 c62 -30 117 -86 147 -151 32 -71 31 -189 -1 -263
-30 -67 -104 -135 -173 -158 -114 -38 -254 3 -324 94 -100 131 -81 334 40 438
52 44 106 62 191 63 54 1 81 -5 120 -23z"/>
<path d="M6602 3081 c-105 -36 -195 -116 -247 -218 -37 -75 -48 -135 -42 -228
14 -231 199 -405 432 -405 300 0 505 283 415 573 -39 126 -158 245 -283 282
-71 21 -208 19 -275 -4z m277 -142 c215 -108 214 -440 -2 -551 -59 -30 -159
-36 -228 -13 -146 49 -234 231 -185 386 42 132 146 209 281 209 60 0 82 -5
134 -31z"/>
<path d="M3522 1088 c-20 -20 -14 -56 13 -74 23 -15 27 -15 50 0 27 18 33 54
13 74 -15 15 -61 15 -76 0z"/>
<path d="M2018 896 c-59 -23 -96 -56 -123 -110 -91 -183 97 -381 283 -296 41
18 42 20 42 66 l0 47 -22 -20 c-37 -33 -64 -43 -119 -43 -46 0 -55 4 -89 38
-97 97 -35 262 98 262 47 0 74 -11 110 -43 l22 -20 0 46 c0 42 -3 48 -31 63
-43 22 -126 27 -171 10z"/>
<path d="M2460 901 c-107 -35 -160 -106 -160 -216 0 -186 214 -282 357 -160
111 95 93 283 -34 353 -46 25 -124 36 -163 23z m146 -92 c55 -51 70 -128 38
-195 -33 -69 -140 -98 -210 -55 -79 48 -86 181 -12 247 33 30 46 34 106 30 39
-2 59 -9 78 -27z"/>
<path d="M2960 899 c-13 -6 -33 -17 -42 -26 -17 -15 -18 -15 -18 5 0 18 -6 22
-35 22 l-35 0 0 -210 0 -210 35 0 35 0 0 128 c0 186 19 232 97 232 57 0 67
-30 71 -207 l4 -153 33 0 34 0 3 154 c3 148 4 156 27 180 18 19 35 26 63 26
62 0 71 -25 69 -180 -2 -168 1 -180 46 -180 l35 0 -4 163 c-4 166 -9 188 -51
234 -39 44 -123 42 -178 -4 l-30 -26 -22 20 c-46 43 -86 52 -137 32z"/>
<path d="M3880 899 c-14 -5 -35 -20 -47 -31 l-23 -21 0 27 c0 25 -3 27 -32 24
l-33 -3 -3 -207 -2 -208 35 0 35 0 0 113 c1 195 24 247 107 247 71 0 77 -14
83 -198 l5 -157 39 -3 39 -3 -5 163 c-5 176 -14 212 -63 244 -31 20 -102 27
-135 13z"/>
<path d="M4294 891 c-117 -53 -159 -217 -85 -333 61 -96 200 -116 283 -41 21
19 22 16 18 -62 -2 -57 -20 -97 -52 -119 -29 -20 -110 -21 -148 -1 -30 15 -60
61 -60 90 0 11 -10 15 -36 15 -36 0 -37 0 -31 -36 9 -51 49 -108 90 -127 23
-11 61 -17 112 -17 94 0 132 19 173 88 l27 47 0 250 0 250 -32 3 c-30 3 -33 1
-33 -22 0 -27 -14 -34 -26 -15 -11 19 -87 49 -124 49 -19 0 -53 -9 -76 -19z
m157 -68 c44 -26 73 -93 65 -150 -12 -90 -58 -133 -141 -133 -126 0 -178 182
-78 270 27 24 43 30 79 30 26 0 59 -8 75 -17z"/>
<path d="M5064 901 c-34 -15 -74 -70 -74 -102 0 -52 25 -85 87 -114 66 -31
103 -61 103 -85 0 -63 -89 -83 -134 -30 -22 27 -27 29 -50 18 -32 -14 -32 -27
-4 -63 61 -78 194 -70 240 16 43 80 14 139 -96 192 -62 30 -76 41 -76 60 0 47
53 64 89 28 16 -16 21 -17 45 -4 33 17 33 23 -3 57 -31 30 -91 42 -127 27z"/>
<path d="M5455 895 c-105 -41 -163 -158 -131 -267 38 -131 177 -192 302 -134
200 93 143 394 -78 412 -33 2 -68 -2 -93 -11z m156 -78 c87 -58 91 -181 10
-250 -64 -53 -178 -29 -217 45 -38 71 -10 178 54 213 42 22 113 19 153 -8z"/>
<path d="M5955 895 c-54 -19 -120 -91 -135 -146 -37 -135 56 -265 196 -277
110 -9 213 74 230 186 15 98 -50 203 -145 237 -53 18 -94 19 -146 0z m153 -75
c35 -22 72 -88 72 -130 0 -42 -37 -108 -72 -130 -47 -30 -137 -24 -174 11 -55
50 -67 115 -34 186 24 54 70 83 130 83 28 0 58 -8 78 -20z"/>
<path d="M6490 903 c-8 -3 -27 -14 -41 -24 -26 -18 -27 -18 -32 1 -4 15 -14
20 -36 20 l-31 0 0 -210 0 -210 34 0 35 0 3 156 3 156 28 24 c30 26 83 32 117
14 29 -16 40 -73 40 -217 l0 -133 35 0 35 0 0 143 c0 78 -5 160 -10 181 -13
59 -55 95 -115 101 -28 3 -57 2 -65 -2z"/>
<path d="M3527 894 c-4 -4 -7 -99 -7 -211 l0 -204 35 3 35 3 3 205 2 205 -30
3 c-17 2 -34 0 -38 -4z"/>
</g>
</svg>
