<?xml version="1.0" encoding="UTF-8" standalone="no"?>
<!-- Created with Inkscape (http://www.inkscape.org/) -->

<svg
   version="1.1"
   id="svg226"
   width="1988.6307"
   height="908.82812"
   viewBox="0 0 1988.6307 908.82812"
   sodipodi:docname="rail_yaw_network.svg"
   inkscape:version="1.2 (dc2aeda, 2022-05-15)"
   xmlns:inkscape="http://www.inkscape.org/namespaces/inkscape"
   xmlns:sodipodi="http://sodipodi.sourceforge.net/DTD/sodipodi-0.dtd"
   xmlns="http://www.w3.org/2000/svg"
   xmlns:svg="http://www.w3.org/2000/svg">
  <defs
     id="defs230">
    <marker
       style="overflow:visible"
       id="TriangleStart"
       refX="2"
       refY="0"
       orient="auto-start-reverse"
       inkscape:stockid="TriangleStart"
       markerWidth="4.1999998"
       markerHeight="5.5999999"
       viewBox="0 0 5.3244081 6.1553851"
       inkscape:isstock="true"
       inkscape:collect="always"
       preserveAspectRatio="xMidYMid">
      <path
         transform="scale(0.5)"
         style="fill:context-stroke;fill-rule:evenodd;stroke:context-stroke;stroke-width:1pt"
         d="M 5.77,0 -2.88,5 V -5 Z"
         id="path135" />
    </marker>
    <clipPath
       clipPathUnits="userSpaceOnUse"
       id="clipPath244">
      <path
         d="m 332.1481,36 h 237.3867 v 87.62109 H 332.1481 Z"
         id="path242" />
    </clipPath>
    <clipPath
       clipPathUnits="userSpaceOnUse"
       id="clipPath254">
      <path
         d="m 333.1481,37 h 235.3867 v 85.62109 H 333.1481 Z"
         id="path252" />
    </clipPath>
    <clipPath
       clipPathUnits="userSpaceOnUse"
       id="clipPath268">
      <path
         d="M 371.2924,286.5399 H 530.3905 V 395.0811 H 371.2924 Z"
         id="path266" />
    </clipPath>
    <clipPath
       clipPathUnits="userSpaceOnUse"
       id="clipPath282">
      <path
         d="m 375.7924,291.0399 h 150.0981 v 99.54117 H 375.7924 Z"
         id="path280" />
    </clipPath>
    <clipPath
       clipPathUnits="userSpaceOnUse"
       id="clipPath302">
      <path
         d="M 666.6052,286.5399 H 825.7033 V 395.0811 H 666.6052 Z"
         id="path300" />
    </clipPath>
    <clipPath
       clipPathUnits="userSpaceOnUse"
       id="clipPath316">
      <path
         d="m 671.1052,291.0399 h 150.0981 v 99.54117 H 671.1052 Z"
         id="path314" />
    </clipPath>
    <clipPath
       clipPathUnits="userSpaceOnUse"
       id="clipPath342">
      <path
         d="m 41.53052,571.6641 h 227.9961 v 60.29297 H 41.53052 Z"
         id="path340" />
    </clipPath>
    <clipPath
       clipPathUnits="userSpaceOnUse"
       id="clipPath352">
      <path
         d="m 42.53052,572.6641 h 225.9961 v 58.29297 H 42.53052 Z"
         id="path350" />
    </clipPath>
    <clipPath
       clipPathUnits="userSpaceOnUse"
       id="clipPath366">
      <path
         d="m 41.53052,441.1641 h 227.9961 v 60.29297 H 41.53052 Z"
         id="path364" />
    </clipPath>
    <clipPath
       clipPathUnits="userSpaceOnUse"
       id="clipPath376">
      <path
         d="m 42.53052,442.1641 h 225.9961 v 58.29297 H 42.53052 Z"
         id="path374" />
    </clipPath>
    <clipPath
       clipPathUnits="userSpaceOnUse"
       id="clipPath390">
      <path
         d="m 36,180.1641 h 227.9961 v 60.29297 H 36 Z"
         id="path388" />
    </clipPath>
    <clipPath
       clipPathUnits="userSpaceOnUse"
       id="clipPath400">
      <path
         d="m 37,181.1641 h 225.9961 v 58.29297 H 37 Z"
         id="path398" />
    </clipPath>
    <clipPath
       clipPathUnits="userSpaceOnUse"
       id="clipPath414">
      <path
         d="m 36,49.66406 h 227.9961 v 60.29297 H 36 Z"
         id="path412" />
    </clipPath>
    <clipPath
       clipPathUnits="userSpaceOnUse"
       id="clipPath424">
      <path
         d="m 37,50.66406 h 225.9961 v 58.29297 H 37 Z"
         id="path422" />
    </clipPath>
    <clipPath
       clipPathUnits="userSpaceOnUse"
       id="clipPath438">
      <path
         d="m 332.1481,558 h 237.3867 v 87.62109 H 332.1481 Z"
         id="path436" />
    </clipPath>
    <clipPath
       clipPathUnits="userSpaceOnUse"
       id="clipPath448">
      <path
         d="m 333.1481,559 h 235.3867 v 85.62109 H 333.1481 Z"
         id="path446" />
    </clipPath>
    <clipPath
       clipPathUnits="userSpaceOnUse"
       id="clipPath462">
      <path
         d="m 627.4609,427.5 h 237.3867 v 87.62109 H 627.4609 Z"
         id="path460" />
    </clipPath>
    <clipPath
       clipPathUnits="userSpaceOnUse"
       id="clipPath472">
      <path
         d="m 628.4609,428.5 h 235.3867 v 85.62109 H 628.4609 Z"
         id="path470" />
    </clipPath>
    <clipPath
       clipPathUnits="userSpaceOnUse"
       id="clipPath486">
      <path
         d="m 627.4609,166.5 h 237.3867 v 87.62109 H 627.4609 Z"
         id="path484" />
    </clipPath>
    <clipPath
       clipPathUnits="userSpaceOnUse"
       id="clipPath496">
      <path
         d="m 628.4609,167.5 h 235.3867 v 85.62109 H 628.4609 Z"
         id="path494" />
    </clipPath>
    <clipPath
       clipPathUnits="userSpaceOnUse"
       id="clipPath510">
      <path
         d="m 922.7738,297 h 237.3867 v 87.62109 H 922.7738 Z"
         id="path508" />
    </clipPath>
    <clipPath
       clipPathUnits="userSpaceOnUse"
       id="clipPath520">
      <path
         d="m 923.7738,298 h 235.3867 v 85.62109 H 923.7738 Z"
         id="path518" />
    </clipPath>
    <clipPath
       clipPathUnits="userSpaceOnUse"
       id="clipPath534">
      <path
         d="m 1218.087,558 h 237.3867 v 87.62109 H 1218.087 Z"
         id="path532" />
    </clipPath>
    <clipPath
       clipPathUnits="userSpaceOnUse"
       id="clipPath544">
      <path
         d="m 1219.087,559 h 235.3867 v 85.62109 H 1219.087 Z"
         id="path542" />
    </clipPath>
    <clipPath
       clipPathUnits="userSpaceOnUse"
       id="clipPath558">
      <path
         d="m 1218.087,36 h 237.3867 v 87.62109 H 1218.087 Z"
         id="path556" />
    </clipPath>
    <clipPath
       clipPathUnits="userSpaceOnUse"
       id="clipPath568">
      <path
         d="m 1219.087,37 h 235.3867 v 85.62109 H 1219.087 Z"
         id="path566" />
    </clipPath>
    <clipPath
       clipPathUnits="userSpaceOnUse"
       id="clipPath582">
      <path
         d="m 632.1562,571.6641 h 227.9961 v 60.29297 H 632.1562 Z"
         id="path580" />
    </clipPath>
    <clipPath
       clipPathUnits="userSpaceOnUse"
       id="clipPath592">
      <path
         d="m 633.1562,572.6641 h 225.9961 v 58.29297 H 633.1562 Z"
         id="path590" />
    </clipPath>
    <clipPath
       clipPathUnits="userSpaceOnUse"
       id="clipPath606">
      <path
         d="m 632.1562,49.66406 h 227.9961 v 60.29297 H 632.1562 Z"
         id="path604" />
    </clipPath>
    <clipPath
       clipPathUnits="userSpaceOnUse"
       id="clipPath616">
      <path
         d="m 633.1562,50.66406 h 225.9961 v 58.29297 H 633.1562 Z"
         id="path614" />
    </clipPath>
    <clipPath
       clipPathUnits="userSpaceOnUse"
       id="clipPath630">
      <path
         d="m 927.4691,441.1641 h 227.9961 v 60.29297 H 927.4691 Z"
         id="path628" />
    </clipPath>
    <clipPath
       clipPathUnits="userSpaceOnUse"
       id="clipPath640">
      <path
         d="m 928.4691,442.1641 h 225.9961 v 58.29297 H 928.4691 Z"
         id="path638" />
    </clipPath>
    <clipPath
       clipPathUnits="userSpaceOnUse"
       id="clipPath654">
      <path
         d="m 927.4691,180.1641 h 227.9961 v 60.29297 H 927.4691 Z"
         id="path652" />
    </clipPath>
    <clipPath
       clipPathUnits="userSpaceOnUse"
       id="clipPath664">
      <path
         d="m 928.4691,181.1641 h 225.9961 v 58.29297 H 928.4691 Z"
         id="path662" />
    </clipPath>
    <clipPath
       clipPathUnits="userSpaceOnUse"
       id="clipPath678">
      <path
         d="m 1222.782,310.6641 h 227.9961 v 60.29297 H 1222.782 Z"
         id="path676" />
    </clipPath>
    <clipPath
       clipPathUnits="userSpaceOnUse"
       id="clipPath688">
      <path
         d="m 1223.782,311.6641 h 225.9961 v 58.29297 H 1223.782 Z"
         id="path686" />
    </clipPath>
    <clipPath
       clipPathUnits="userSpaceOnUse"
       id="clipPath702">
      <path
         d="m 267.5266,599.3105 h 66.62146 v 5 H 267.5266 Z"
         id="path700" />
    </clipPath>
    <clipPath
       clipPathUnits="userSpaceOnUse"
       id="clipPath714">
      <path
         d="m 267.4785,468.7628 h 66.6 v 140.6 h -66.6 z"
         id="path712" />
    </clipPath>
    <clipPath
       clipPathUnits="userSpaceOnUse"
       id="clipPath728">
      <path
         d="m 261.9785,72.16279 h 72.1 v 140.6 h -72.1 z"
         id="path726" />
    </clipPath>
    <clipPath
       clipPathUnits="userSpaceOnUse"
       id="clipPath742">
      <path
         d="m 261.9961,77.31055 h 68.46497 v 5 H 261.9961 Z"
         id="path740" />
    </clipPath>
    <clipPath
       clipPathUnits="userSpaceOnUse"
       id="clipPath754">
      <path
         d="m 443.2414,121.6211 h 15.2 V 288.54 h -15.2 z"
         id="path752" />
    </clipPath>
    <clipPath
       clipPathUnits="userSpaceOnUse"
       id="clipPath768">
      <path
         d="m 443.2414,393.0811 h 15.2 V 560 h -15.2 z"
         id="path766" />
    </clipPath>
    <clipPath
       clipPathUnits="userSpaceOnUse"
       id="clipPath782">
      <path
         d="m 738.5543,252.1211 h 15.2 v 36.41885 h -15.2 z"
         id="path780" />
    </clipPath>
    <clipPath
       clipPathUnits="userSpaceOnUse"
       id="clipPath796">
      <path
         d="m 738.5543,393.0811 h 15.2 v 36.41888 h -15.2 z"
         id="path794" />
    </clipPath>
    <clipPath
       clipPathUnits="userSpaceOnUse"
       id="clipPath810">
      <path
         d="m 567.5348,594.2105 h 66.62146 v 15.2 H 567.5348 Z"
         id="path808" />
    </clipPath>
    <clipPath
       clipPathUnits="userSpaceOnUse"
       id="clipPath824">
      <path
         d="m 858.1523,594.2105 h 361.3567 v 15.2 H 858.1523 Z"
         id="path822" />
    </clipPath>
    <clipPath
       clipPathUnits="userSpaceOnUse"
       id="clipPath838">
      <path
         d="m 568.1124,72.21055 h 66.04385 v 15.2 H 568.1124 Z"
         id="path836" />
    </clipPath>
    <clipPath
       clipPathUnits="userSpaceOnUse"
       id="clipPath852">
      <path
         d="m 1033.867,382.6211 h 15.2 v 60.54294 h -15.2 z"
         id="path850" />
    </clipPath>
    <clipPath
       clipPathUnits="userSpaceOnUse"
       id="clipPath866">
      <path
         d="m 858.1523,72.21055 h 361.9343 v 15.2 H 858.1523 Z"
         id="path864" />
    </clipPath>
    <clipPath
       clipPathUnits="userSpaceOnUse"
       id="clipPath880">
      <path
         d="m 738.5543,107.957 h 15.2 v 60.54297 h -15.2 z"
         id="path878" />
    </clipPath>
    <clipPath
       clipPathUnits="userSpaceOnUse"
       id="clipPath894">
      <path
         d="m 738.5543,513.1211 h 15.2 v 60.54297 h -15.2 z"
         id="path892" />
    </clipPath>
    <clipPath
       clipPathUnits="userSpaceOnUse"
       id="clipPath908">
      <path
         d="m 862.8477,468.8105 h 66.62146 v 5 H 862.8477 Z"
         id="path906" />
    </clipPath>
    <clipPath
       clipPathUnits="userSpaceOnUse"
       id="clipPath920">
      <path
         d="m 863.4253,202.7105 h 66.04385 v 15.2 H 863.4253 Z"
         id="path918" />
    </clipPath>
    <clipPath
       clipPathUnits="userSpaceOnUse"
       id="clipPath934">
      <path
         d="m 1033.867,238.457 h 15.2 v 60.54297 h -15.2 z"
         id="path932" />
    </clipPath>
    <clipPath
       clipPathUnits="userSpaceOnUse"
       id="clipPath948">
      <path
         d="m 1158.161,333.2105 h 66.6215 v 15.2 h -66.6215 z"
         id="path946" />
    </clipPath>
    <clipPath
       clipPathUnits="userSpaceOnUse"
       id="clipPath962">
      <path
         d="m 605.8785,202.6628 h 142.7 v 371.1 h -142.7 z"
         id="path960" />
    </clipPath>
  </defs>
  <sodipodi:namedview
     id="namedview228"
     pagecolor="#ffffff"
     bordercolor="#111111"
     borderopacity="1"
     inkscape:showpageshadow="0"
     inkscape:pageopacity="0"
     inkscape:pagecheckerboard="1"
     inkscape:deskcolor="#d1d1d1"
     showgrid="false"
     inkscape:zoom="0.71776055"
     inkscape:cx="978.73866"
     inkscape:cy="531.51431"
     inkscape:window-width="1470"
     inkscape:window-height="835"
     inkscape:window-x="0"
     inkscape:window-y="37"
     inkscape:window-maximized="0"
     inkscape:current-layer="g234">
    <inkscape:page
       x="0"
       y="0"
       id="page232"
       width="1988.6307"
       height="908.82812" />
  </sodipodi:namedview>
  <g
     id="g234"
     inkscape:groupmode="layer"
     inkscape:label="Page 1"
     transform="matrix(1.3333333,0,0,-1.3333333,0,908.82813)">
    <g
       id="g236" />
    <g
       id="g384"
       transform="translate(2.7653191,-12.062098)"
       style="fill:#e3b500;fill-opacity:1">
      <g
         id="g386"
         clip-path="url(#clipPath390)"
         style="fill:#e3b500;fill-opacity:1">
        <path
           d="m 37,181.1641 h 225.9961 v 58.29297 H 37 Z"
           style="fill:#e3b500;fill-opacity:1;fill-rule:nonzero;stroke:none"
           id="path392" />
      </g>
    </g>
    <g
       id="g360"
       transform="translate(-2.7652009,12.062037)"
       style="fill:#e3b500;fill-opacity:1">
      <g
         id="g362"
         clip-path="url(#clipPath366)"
         style="fill:#e3b500;fill-opacity:1">
        <path
           d="m 42.53052,442.1641 h 225.9961 v 58.29297 H 42.53052 Z"
           style="fill:#e3b500;fill-opacity:1;fill-rule:nonzero;stroke:none"
           id="path368" />
      </g>
    </g>
    <g
       id="g336"
       style="fill:#e3b500;fill-opacity:1"
       transform="translate(-2.7652009,-1.0229736e-5)">
      <g
         id="g338"
         clip-path="url(#clipPath342)"
         style="fill:#e3b500;fill-opacity:1">
        <path
           d="m 42.53052,572.6641 h 225.9961 v 58.29297 H 42.53052 Z"
           style="fill:#e3b500;fill-opacity:1;fill-rule:nonzero;stroke:none"
           id="path344" />
      </g>
    </g>
    <text
       xml:space="preserve"
       style="font-style:normal;font-variant:normal;font-weight:bold;font-stretch:normal;font-size:20px;line-height:1.25;font-family:Helvetica;-inkscape-font-specification:'Helvetica Bold';fill:#000000;fill-opacity:1;stroke:none;stroke-width:0.75"
       x="152.7829"
       y="-609.12994"
       id="text1382-0-6"
       transform="scale(1,-1)"><tspan
         sodipodi:role="line"
         id="tspan1380-6-9"
         x="152.7829"
         y="-609.12994"
         style="font-style:normal;font-variant:normal;font-weight:bold;font-stretch:normal;font-size:20px;font-family:Helvetica;-inkscape-font-specification:'Helvetica Bold';text-align:center;text-anchor:middle;stroke-width:0.75">TableHandle</tspan><tspan
         sodipodi:role="line"
         x="152.7829"
         y="-584.12994"
         style="font-style:normal;font-variant:normal;font-weight:bold;font-stretch:normal;font-size:20px;font-family:Helvetica;-inkscape-font-specification:'Helvetica Bold';text-align:center;text-anchor:middle;stroke-width:0.75"
         id="tspan8911">(reference data)</tspan></text>
    <text
       xml:space="preserve"
       style="font-style:normal;font-variant:normal;font-weight:bold;font-stretch:normal;font-size:20px;line-height:1.25;font-family:Helvetica;-inkscape-font-specification:'Helvetica Bold';fill:#000000;fill-opacity:1;stroke:none;stroke-width:0.75"
       x="152.7829"
       y="-490.69196"
       id="text1382-0-6-3"
       transform="scale(1,-1)"><tspan
         sodipodi:role="line"
         id="tspan1380-6-9-6"
         x="152.7829"
         y="-490.69196"
         style="font-style:normal;font-variant:normal;font-weight:bold;font-stretch:normal;font-size:20px;font-family:Helvetica;-inkscape-font-specification:'Helvetica Bold';text-align:center;text-anchor:middle;stroke-width:0.75">TableHandle</tspan><tspan
         sodipodi:role="line"
         x="152.7829"
         y="-465.69196"
         style="font-style:normal;font-variant:normal;font-weight:bold;font-stretch:normal;font-size:20px;font-family:Helvetica;-inkscape-font-specification:'Helvetica Bold';text-align:center;text-anchor:middle;stroke-width:0.75"
         id="tspan8911-8">(reference randoms)</tspan></text>
    <text
       xml:space="preserve"
       style="font-style:normal;font-variant:normal;font-weight:bold;font-stretch:normal;font-size:20px;line-height:1.25;font-family:Helvetica;-inkscape-font-specification:'Helvetica Bold';fill:#000000;fill-opacity:1;stroke:none;stroke-width:0.75"
       x="152.7829"
       y="-205.56781"
       id="text1382-0-6-4"
       transform="scale(1,-1)"><tspan
         sodipodi:role="line"
         id="tspan1380-6-9-8"
         x="152.7829"
         y="-205.56781"
         style="font-style:normal;font-variant:normal;font-weight:bold;font-stretch:normal;font-size:20px;font-family:Helvetica;-inkscape-font-specification:'Helvetica Bold';text-align:center;text-anchor:middle;stroke-width:0.75">TableHandle</tspan><tspan
         sodipodi:role="line"
         x="152.7829"
         y="-180.56781"
         style="font-style:normal;font-variant:normal;font-weight:bold;font-stretch:normal;font-size:20px;font-family:Helvetica;-inkscape-font-specification:'Helvetica Bold';text-align:center;text-anchor:middle;stroke-width:0.75"
         id="tspan8911-3">(unknown data)</tspan></text>
    <g
       id="g408"
       transform="translate(2.7653191,-1.0229736e-5)"
       style="fill:#e3b500;fill-opacity:1">
      <g
         id="g410"
         clip-path="url(#clipPath414)"
         style="fill:#e3b500;fill-opacity:1">
        <path
           d="m 37,50.66406 h 225.9961 v 58.29297 H 37 Z"
           style="fill:#e3b500;fill-opacity:1;fill-rule:nonzero;stroke:none"
           id="path416" />
      </g>
    </g>
    <g
       id="g238"
       transform="translate(-6.2867609,-1.0229736e-5)"
       style="fill:#4268ff;fill-opacity:1">
      <g
         id="g240"
         clip-path="url(#clipPath244)"
         style="fill:#4268ff;fill-opacity:1">
        <path
           d="m 392.2882,122.6211 h 117.1065 c 16.9455,0 27.1129,0 33.8911,-2.447 10.5971,-3.8571 18.9449,-12.2049 22.802,-22.80199 1.7256,-4.09393 2.447,-12.18825 2.447,-17.56156 0,-5.37332 -0.7214,-13.46764 -2.447,-17.56157 C 562.2307,51.65185 553.8829,43.30408 543.2858,39.44704 536.5076,37 526.3402,37 509.3947,37 H 392.2882 c -16.9456,0 -27.1129,0 -33.8911,2.44704 -10.5972,3.85704 -18.945,12.20481 -22.802,22.80194 -1.7257,4.09393 -2.447,12.18825 -2.447,17.56157 0,5.37331 0.7213,13.46763 2.447,17.56156 3.857,10.59709 12.2048,18.94489 22.802,22.80199 6.7782,2.447 16.9455,2.447 33.8911,2.447 z"
           style="fill:#136eff;fill-opacity:1;fill-rule:nonzero;stroke:none"
           id="path246" />
      </g>
    </g>
    <text
       xml:space="preserve"
       style="font-style:normal;font-variant:normal;font-weight:bold;font-stretch:normal;font-size:20px;line-height:1.25;font-family:Helvetica;-inkscape-font-specification:'Helvetica Bold';fill:#ffffff;fill-opacity:1;stroke:none;stroke-width:0.75"
       x="364.06491"
       y="-72.67675"
       id="text1382-0-8"
       transform="scale(1,-1)"><tspan
         sodipodi:role="line"
         id="tspan1380-6-6"
         x="364.06491"
         y="-72.67675"
         style="font-style:normal;font-variant:normal;font-weight:bold;font-stretch:normal;font-size:20px;font-family:Helvetica;-inkscape-font-specification:'Helvetica Bold';fill:#ffffff;fill-opacity:1;stroke-width:0.75">YawCacheCreate</tspan></text>
    <g
       id="g262"
       transform="translate(-6.2867609,5.4770264e-5)"
       style="fill:#808080;fill-opacity:1;stroke:none">
      <g
         id="g264"
         clip-path="url(#clipPath268)"
         style="fill:#808080;fill-opacity:1;stroke:none">
        <path
           d="M 373.7924,289.0399 H 527.8905 V 392.5811 H 373.7924 Z"
           style="fill:#808080;fill-opacity:1;fill-rule:nonzero;stroke:none"
           id="path270" />
        <g
           id="g272"
           transform="matrix(1,0,0,-1,373.7924,392.5811)"
           style="fill:#808080;fill-opacity:1;stroke:none">
          <path
             d="M 0,0 H 154.0981 V 103.5412 H 0 Z"
             style="fill:#808080;fill-opacity:1;stroke:none;stroke-width:3.75;stroke-linecap:butt;stroke-linejoin:miter;stroke-miterlimit:4;stroke-dasharray:none;stroke-opacity:1"
             id="path274" />
        </g>
      </g>
    </g>
    <text
       xml:space="preserve"
       style="font-style:normal;font-variant:normal;font-weight:bold;font-stretch:normal;font-size:20px;line-height:1.25;font-family:Helvetica;-inkscape-font-specification:'Helvetica Bold';fill:#ffffff;fill-opacity:1;stroke:none;stroke-width:0.75"
       x="444.11526"
       y="-348.29102"
       id="text1382-0-1"
       transform="scale(1,-1)"><tspan
         sodipodi:role="line"
         id="tspan1380-6-40"
         x="444.11526"
         y="-348.29102"
         style="font-style:normal;font-variant:normal;font-weight:bold;font-stretch:normal;font-size:20px;font-family:Helvetica;-inkscape-font-specification:'Helvetica Bold';text-align:center;text-anchor:middle;fill:#ffffff;fill-opacity:1;stroke-width:0.75">Data columns,</tspan><tspan
         sodipodi:role="line"
         x="444.11526"
         y="-323.29102"
         style="font-style:normal;font-variant:normal;font-weight:bold;font-stretch:normal;font-size:20px;font-family:Helvetica;-inkscape-font-specification:'Helvetica Bold';text-align:center;text-anchor:middle;fill:#ffffff;fill-opacity:1;stroke-width:0.75"
         id="tspan2361">patch strategy</tspan></text>
    <g
       id="g432"
       transform="translate(-6.2867609,2.4770264e-5)"
       style="fill:#4268ff;fill-opacity:1">
      <g
         id="g434"
         clip-path="url(#clipPath438)"
         style="fill:#4268ff;fill-opacity:1">
        <path
           d="m 392.2882,644.6211 h 117.1065 c 16.9455,0 27.1129,0 33.8911,-2.447 10.5971,-3.8571 18.9449,-12.2049 22.802,-22.802 1.7256,-4.0939 2.447,-12.1882 2.447,-17.5616 0,-5.3733 -0.7214,-13.4676 -2.447,-17.5615 -3.8571,-10.5972 -12.2049,-18.9449 -22.802,-22.802 C 536.5076,559 526.3402,559 509.3947,559 H 392.2882 c -16.9456,0 -27.1129,0 -33.8911,2.447 -10.5972,3.8571 -18.945,12.2048 -22.802,22.802 -1.7257,4.0939 -2.447,12.1882 -2.447,17.5615 0,5.3734 0.7213,13.4677 2.447,17.5616 3.857,10.5971 12.2048,18.9449 22.802,22.802 6.7782,2.447 16.9455,2.447 33.8911,2.447 z"
           style="fill:#136eff;fill-opacity:1;fill-rule:nonzero;stroke:none"
           id="path440" />
      </g>
    </g>
    <text
       xml:space="preserve"
       style="font-style:normal;font-variant:normal;font-weight:bold;font-stretch:normal;font-size:20px;line-height:1.25;font-family:Helvetica;-inkscape-font-specification:'Helvetica Bold';fill:#ffffff;fill-opacity:1;stroke:none;stroke-width:0.75"
       x="364.06491"
       y="-594.67682"
       id="text1382-0-81"
       transform="scale(1,-1)"><tspan
         sodipodi:role="line"
         id="tspan1380-6-0"
         x="364.06491"
         y="-594.67682"
         style="font-style:normal;font-variant:normal;font-weight:bold;font-stretch:normal;font-size:20px;font-family:Helvetica;-inkscape-font-specification:'Helvetica Bold';fill:#ffffff;fill-opacity:1;stroke-width:0.75">YawCacheCreate</tspan></text>
    <g
       id="g576"
       transform="translate(-5.1128909,-1.0229736e-5)"
       style="fill:#e3b500;fill-opacity:1">
      <g
         id="g578"
         clip-path="url(#clipPath582)"
         style="fill:#e3b500;fill-opacity:1">
        <path
           d="m 633.1562,572.6641 h 225.9961 v 58.29297 H 633.1562 Z"
           style="fill:#e3b500;fill-opacity:1;fill-rule:nonzero;stroke:none"
           id="path584" />
      </g>
    </g>
    <text
       xml:space="preserve"
       style="font-style:normal;font-variant:normal;font-weight:bold;font-stretch:normal;font-size:20px;line-height:1.25;font-family:Helvetica;-inkscape-font-specification:'Helvetica Bold';fill:#000000;fill-opacity:1;stroke:none;stroke-width:0.75"
       x="658.33966"
       y="-594.67682"
       id="text1382-0-3"
       transform="scale(1,-1)"><tspan
         sodipodi:role="line"
         id="tspan1380-6-11"
         x="658.33966"
         y="-594.67682"
         style="font-style:normal;font-variant:normal;font-weight:bold;font-stretch:normal;font-size:20px;font-family:Helvetica;-inkscape-font-specification:'Helvetica Bold';stroke-width:0.75">YawCacheHandle</tspan></text>
    <g
       id="g456"
       transform="translate(-5.1129409,12.062072)"
       style="fill:#4268ff;fill-opacity:1">
      <g
         id="g458"
         clip-path="url(#clipPath462)"
         style="fill:#4268ff;fill-opacity:1">
        <path
           d="m 687.6011,514.1211 h 117.1064 c 16.9456,0 27.1129,0 33.8912,-2.447 10.5971,-3.8571 18.9449,-12.2049 22.8019,-22.802 1.7257,-4.0939 2.4471,-12.1882 2.4471,-17.5616 0,-5.3733 -0.7214,-13.4676 -2.4471,-17.5615 -3.857,-10.5972 -12.2048,-18.9449 -22.8019,-22.802 C 831.8204,428.5 821.6531,428.5 804.7075,428.5 H 687.6011 c -16.9456,0 -27.113,0 -33.8912,2.447 -10.5971,3.8571 -18.9449,12.2048 -22.8019,22.802 -1.7257,4.0939 -2.4471,12.1882 -2.4471,17.5615 0,5.3734 0.7214,13.4677 2.4471,17.5616 3.857,10.5971 12.2048,18.9449 22.8019,22.802 6.7782,2.447 16.9456,2.447 33.8912,2.447 z"
           style="fill:#136eff;fill-opacity:1;fill-rule:nonzero;stroke:none"
           id="path464" />
      </g>
    </g>
    <text
       xml:space="preserve"
       style="font-style:normal;font-variant:normal;font-weight:bold;font-stretch:normal;font-size:20px;line-height:1.25;font-family:Helvetica;-inkscape-font-specification:'Helvetica Bold';fill:#ffffff;fill-opacity:1;stroke:none;stroke-width:0.75"
       x="655.01935"
       y="-476.23883"
       id="text1382-0-5"
       transform="scale(1,-1)"><tspan
         sodipodi:role="line"
         id="tspan1380-6-08"
         x="655.01935"
         y="-476.23883"
         style="font-style:normal;font-variant:normal;font-weight:bold;font-stretch:normal;font-size:20px;font-family:Helvetica;-inkscape-font-specification:'Helvetica Bold';fill:#ffffff;fill-opacity:1;stroke-width:0.75">YawAutoCorrelate</tspan></text>
    <g
       id="g296"
       transform="translate(-5.1128909,5.4770264e-5)"
       style="fill:#808080;fill-opacity:1;stroke:none">
      <g
         id="g298"
         clip-path="url(#clipPath302)"
         style="fill:#808080;fill-opacity:1;stroke:none">
        <path
           d="M 669.1052,289.0399 H 823.2033 V 392.5811 H 669.1052 Z"
           style="fill:#808080;fill-opacity:1;fill-rule:nonzero;stroke:none"
           id="path304" />
        <g
           id="g306"
           transform="matrix(1,0,0,-1,669.1052,392.5811)"
           style="fill:#808080;fill-opacity:1;stroke:none">
          <path
             d="M 0,0 H 154.0981 V 103.5412 H 0 Z"
             style="fill:#808080;fill-opacity:1;stroke:none;stroke-width:3.75;stroke-linecap:butt;stroke-linejoin:miter;stroke-miterlimit:4;stroke-dasharray:none;stroke-opacity:1"
             id="path308" />
        </g>
      </g>
    </g>
    <text
       xml:space="preserve"
       style="font-style:normal;font-variant:normal;font-weight:bold;font-stretch:normal;font-size:20px;line-height:1.25;font-family:Helvetica;-inkscape-font-specification:'Helvetica Bold';fill:#ffffff;fill-opacity:1;stroke:none;stroke-width:0.75"
       x="741.05597"
       y="-360.58105"
       id="text1382-0-4"
       transform="scale(1,-1)"><tspan
         sodipodi:role="line"
         id="tspan1380-6-93"
         x="741.05597"
         y="-360.58105"
         style="font-style:normal;font-variant:normal;font-weight:bold;font-stretch:normal;font-size:20px;font-family:Helvetica;-inkscape-font-specification:'Helvetica Bold';text-align:center;text-anchor:middle;fill:#ffffff;fill-opacity:1;stroke-width:0.75">Scales,</tspan><tspan
         sodipodi:role="line"
         x="741.05597"
         y="-335.58105"
         style="font-style:normal;font-variant:normal;font-weight:bold;font-stretch:normal;font-size:20px;font-family:Helvetica;-inkscape-font-specification:'Helvetica Bold';text-align:center;text-anchor:middle;fill:#ffffff;fill-opacity:1;stroke-width:0.75"
         id="tspan2363">binning,</tspan><tspan
         sodipodi:role="line"
         x="741.05597"
         y="-310.58105"
         style="font-style:normal;font-variant:normal;font-weight:bold;font-stretch:normal;font-size:20px;font-family:Helvetica;-inkscape-font-specification:'Helvetica Bold';text-align:center;text-anchor:middle;fill:#ffffff;fill-opacity:1;stroke-width:0.75"
         id="tspan2365">resampling</tspan></text>
    <g
       id="g480"
       transform="translate(-5.1129409,-12.062063)"
       style="fill:#4268ff;fill-opacity:1">
      <g
         id="g482"
         clip-path="url(#clipPath486)"
         style="fill:#4268ff;fill-opacity:1">
        <path
           d="m 687.6011,253.1211 h 117.1064 c 16.9456,0 27.1129,0 33.8912,-2.447 10.5971,-3.8571 18.9449,-12.2049 22.8019,-22.802 1.7257,-4.0939 2.4471,-12.1882 2.4471,-17.5616 0,-5.3733 -0.7214,-13.4676 -2.4471,-17.5615 -3.857,-10.5972 -12.2048,-18.9449 -22.8019,-22.802 C 831.8204,167.5 821.6531,167.5 804.7075,167.5 H 687.6011 c -16.9456,0 -27.113,0 -33.8912,2.447 -10.5971,3.8571 -18.9449,12.2048 -22.8019,22.802 -1.7257,4.0939 -2.4471,12.1882 -2.4471,17.5615 0,5.3734 0.7214,13.4677 2.4471,17.5616 3.857,10.5971 12.2048,18.9449 22.8019,22.802 6.7782,2.447 16.9456,2.447 33.8912,2.447 z"
           style="fill:#136eff;fill-opacity:1;fill-rule:nonzero;stroke:none"
           id="path488" />
      </g>
    </g>
    <text
       xml:space="preserve"
       style="font-style:normal;font-variant:normal;font-weight:bold;font-stretch:normal;font-size:20px;line-height:1.25;font-family:Helvetica;-inkscape-font-specification:'Helvetica Bold';fill:#ffffff;fill-opacity:1;stroke:none;stroke-width:0.75"
       x="649.44318"
       y="-191.11469"
       id="text1382-0-05"
       transform="scale(1,-1)"><tspan
         sodipodi:role="line"
         id="tspan1380-6-2"
         x="649.44318"
         y="-191.11469"
         style="font-style:normal;font-variant:normal;font-weight:bold;font-stretch:normal;font-size:20px;font-family:Helvetica;-inkscape-font-specification:'Helvetica Bold';fill:#ffffff;fill-opacity:1;stroke-width:0.75">YawCrossCorrelate</tspan></text>
    <g
       id="g600"
       transform="translate(-5.1128909,-1.0229736e-5)"
       style="fill:#e3b500;fill-opacity:1">
      <g
         id="g602"
         clip-path="url(#clipPath606)"
         style="fill:#e3b500;fill-opacity:1">
        <path
           d="m 633.1562,50.66406 h 225.9961 v 58.29297 H 633.1562 Z"
           style="fill:#e3b500;fill-opacity:1;fill-rule:nonzero;stroke:none"
           id="path608" />
      </g>
    </g>
    <text
       xml:space="preserve"
       style="font-style:normal;font-variant:normal;font-weight:bold;font-stretch:normal;font-size:20px;line-height:1.25;font-family:Helvetica;-inkscape-font-specification:'Helvetica Bold';fill:#000000;fill-opacity:1;stroke:none;stroke-width:0.75"
       x="658.33966"
       y="-72.67675"
       id="text1382-0-38"
       transform="scale(1,-1)"><tspan
         sodipodi:role="line"
         id="tspan1380-6-7"
         x="658.33966"
         y="-72.67675"
         style="font-style:normal;font-variant:normal;font-weight:bold;font-stretch:normal;font-size:20px;font-family:Helvetica;-inkscape-font-specification:'Helvetica Bold';stroke-width:0.75">YawCacheHandle</tspan></text>
    <g
       id="g624"
       transform="translate(-3.9388709,12.062037)"
       style="fill:#e3b500;fill-opacity:1">
      <g
         id="g626"
         clip-path="url(#clipPath630)"
         style="fill:#e3b500;fill-opacity:1">
        <path
           d="m 928.4691,442.1641 h 225.9961 v 58.29297 H 928.4691 Z"
           style="fill:#e3b500;fill-opacity:1;fill-rule:nonzero;stroke:none"
           id="path632" />
      </g>
    </g>
    <text
       xml:space="preserve"
       style="font-style:normal;font-variant:normal;font-weight:bold;font-stretch:normal;font-size:20px;line-height:1.25;font-family:Helvetica;-inkscape-font-specification:'Helvetica Bold';fill:#000000;fill-opacity:1;stroke:none;stroke-width:0.75"
       x="939.84125"
       y="-476.23883"
       id="text1382-0-80"
       transform="scale(1,-1)"><tspan
         sodipodi:role="line"
         id="tspan1380-6-45"
         x="939.84125"
         y="-476.23883"
         style="font-style:normal;font-variant:normal;font-weight:bold;font-stretch:normal;font-size:20px;font-family:Helvetica;-inkscape-font-specification:'Helvetica Bold';stroke-width:0.75">YawCorrFuncHandle</tspan></text>
    <g
       id="g504"
       transform="translate(-3.9391209,2.4770264e-5)"
       style="fill:#4268ff;fill-opacity:1">
      <g
         id="g506"
         clip-path="url(#clipPath510)"
         style="fill:#4268ff;fill-opacity:1">
        <path
           d="M 982.9139,383.6211 H 1100.02 c 16.946,0 27.113,0 33.892,-2.447 10.597,-3.8571 18.944,-12.2049 22.801,-22.802 1.726,-4.0939 2.448,-12.1882 2.448,-17.5616 0,-5.3733 -0.722,-13.4676 -2.448,-17.5615 -3.857,-10.5972 -12.204,-18.9449 -22.801,-22.802 C 1127.133,298 1116.966,298 1100.02,298 H 982.9139 c -16.9455,0 -27.1129,0 -33.8911,2.447 -10.5971,3.8571 -18.9449,12.2048 -22.802,22.802 -1.7256,4.0939 -2.447,12.1882 -2.447,17.5615 0,5.3734 0.7214,13.4677 2.447,17.5616 3.8571,10.5971 12.2049,18.9449 22.802,22.802 6.7782,2.447 16.9456,2.447 33.8911,2.447 z"
           style="fill:#136eff;fill-opacity:1;fill-rule:nonzero;stroke:none"
           id="path512" />
      </g>
    </g>
    <text
       xml:space="preserve"
       style="font-style:normal;font-variant:normal;font-weight:bold;font-stretch:normal;font-size:20px;line-height:1.25;font-family:Helvetica;-inkscape-font-specification:'Helvetica Bold';fill:#ffffff;fill-opacity:1;stroke:none;stroke-width:0.75"
       x="964.82654"
       y="-333.5889"
       id="text1382-0-7"
       transform="scale(1,-1)"><tspan
         sodipodi:role="line"
         id="tspan1380-6-10"
         x="964.82654"
         y="-333.5889"
         style="font-style:normal;font-variant:normal;font-weight:bold;font-stretch:normal;font-size:20px;font-family:Helvetica;-inkscape-font-specification:'Helvetica Bold';fill:#ffffff;fill-opacity:1;stroke-width:0.75">YawSummarize</tspan></text>
    <g
       id="g648"
       transform="translate(-3.9388709,-12.062098)"
       style="fill:#e3b500;fill-opacity:1">
      <g
         id="g650"
         clip-path="url(#clipPath654)"
         style="fill:#e3b500;fill-opacity:1">
        <path
           d="m 928.4691,181.1641 h 225.9961 v 58.29297 H 928.4691 Z"
           style="fill:#e3b500;fill-opacity:1;fill-rule:nonzero;stroke:none"
           id="path656" />
      </g>
    </g>
    <text
       xml:space="preserve"
       style="font-style:normal;font-variant:normal;font-weight:bold;font-stretch:normal;font-size:20px;line-height:1.25;font-family:Helvetica;-inkscape-font-specification:'Helvetica Bold';word-spacing:0px;fill:#000000;fill-opacity:1;stroke:none;stroke-width:0.75"
       x="939.84125"
       y="-191.11469"
       id="text1382-0-60"
       transform="scale(1,-1)"><tspan
         sodipodi:role="line"
         id="tspan1380-6-3"
         x="939.84125"
         y="-191.11469"
         style="font-style:normal;font-variant:normal;font-weight:bold;font-stretch:normal;font-size:20px;font-family:Helvetica;-inkscape-font-specification:'Helvetica Bold';stroke-width:0.75"
         rotate="0 0 0 0 0 0 0 0 0 0 0 0 0 0 0 0 0 0"
         dy="0"
         dx="0">YawCorrFuncHandle</tspan></text>
    <g
       id="g528"
       style="fill:#4268ff;fill-opacity:1"
       transform="translate(-2.7652009,-1.0229736e-5)">
      <g
         id="g530"
         clip-path="url(#clipPath534)"
         style="fill:#4268ff;fill-opacity:1">
        <path
           d="m 1278.227,644.6211 h 117.106 c 16.946,0 27.113,0 33.891,-2.447 10.598,-3.8571 18.945,-12.2049 22.802,-22.802 1.726,-4.0939 2.447,-12.1882 2.447,-17.5616 0,-5.3733 -0.721,-13.4676 -2.447,-17.5615 -3.857,-10.5972 -12.204,-18.9449 -22.802,-22.802 C 1422.446,559 1412.279,559 1395.333,559 h -117.106 c -16.946,0 -27.113,0 -33.891,2.447 -10.597,3.8571 -18.945,12.2048 -22.802,22.802 -1.726,4.0939 -2.447,12.1882 -2.447,17.5615 0,5.3734 0.721,13.4677 2.447,17.5616 3.857,10.5971 12.205,18.9449 22.802,22.802 6.778,2.447 16.945,2.447 33.891,2.447 z"
           style="fill:#136eff;fill-opacity:1;fill-rule:nonzero;stroke:none"
           id="path536" />
      </g>
    </g>
    <text
       xml:space="preserve"
       style="font-style:normal;font-variant:normal;font-weight:bold;font-stretch:normal;font-size:20px;line-height:1.25;font-family:Helvetica;-inkscape-font-specification:'Helvetica Bold';fill:#ffffff;fill-opacity:1;stroke:none;stroke-width:0.75"
       x="1261.3927"
       y="-596.57129"
       id="text1382-0-35"
       transform="scale(1,-1)"><tspan
         sodipodi:role="line"
         id="tspan1380-6-02"
         x="1261.3927"
         y="-596.57129"
         style="font-style:normal;font-variant:normal;font-weight:bold;font-stretch:normal;font-size:20px;font-family:Helvetica;-inkscape-font-specification:'Helvetica Bold';fill:#ffffff;fill-opacity:1;stroke-width:0.75">YawCacheDrop</tspan></text>
    <g
       id="g672"
       transform="translate(-2.7652509,-1.0229736e-5)"
       style="fill:#e04534;fill-opacity:1">
      <g
         id="g674"
         clip-path="url(#clipPath678)"
         style="fill:#e04534;fill-opacity:1">
        <path
           d="m 1223.782,311.6641 h 225.9961 v 58.29297 H 1223.782 Z"
           style="fill:#e04534;fill-opacity:1;fill-rule:nonzero;stroke:none"
           id="path680" />
      </g>
    </g>
    <text
       xml:space="preserve"
       style="font-style:normal;font-variant:normal;font-weight:bold;font-stretch:normal;font-size:20px;line-height:1.25;font-family:Helvetica;-inkscape-font-specification:'Helvetica Bold';fill:#000000;fill-opacity:1;stroke:none;stroke-width:0.75"
       x="1286.0201"
       y="-333.91605"
       id="text1382-0-32"
       transform="scale(1,-1)"><tspan
         sodipodi:role="line"
         id="tspan1380-6-71"
         x="1286.0201"
         y="-333.91605"
         style="font-style:normal;font-variant:normal;font-weight:bold;font-stretch:normal;font-size:20px;font-family:Helvetica;-inkscape-font-specification:'Helvetica Bold';stroke-width:0.75">QPHandle</tspan></text>
    <g
       id="g552"
       style="fill:#4268ff;fill-opacity:1"
       transform="translate(-2.7652009,-1.0229736e-5)">
      <g
         id="g554"
         clip-path="url(#clipPath558)"
         style="fill:#4268ff;fill-opacity:1">
        <path
           d="m 1278.227,122.6211 h 117.106 c 16.946,0 27.113,0 33.891,-2.447 10.598,-3.8571 18.945,-12.2049 22.802,-22.80199 1.726,-4.09393 2.447,-12.18825 2.447,-17.56156 0,-5.37332 -0.721,-13.46764 -2.447,-17.56157 -3.857,-10.59713 -12.204,-18.9449 -22.802,-22.80194 C 1422.446,37 1412.279,37 1395.333,37 h -117.106 c -16.946,0 -27.113,0 -33.891,2.44704 -10.597,3.85704 -18.945,12.20481 -22.802,22.80194 -1.726,4.09393 -2.447,12.18825 -2.447,17.56157 0,5.37331 0.721,13.46763 2.447,17.56156 3.857,10.59709 12.205,18.94489 22.802,22.80199 6.778,2.447 16.945,2.447 33.891,2.447 z"
           style="fill:#136eff;fill-opacity:1;fill-rule:nonzero;stroke:none"
           id="path560" />
      </g>
    </g>
    <text
       xml:space="preserve"
       style="font-style:normal;font-variant:normal;font-weight:bold;font-stretch:normal;font-size:20px;line-height:1.25;font-family:Helvetica;-inkscape-font-specification:'Helvetica Bold';fill:#ffffff;fill-opacity:1;stroke:none;stroke-width:0.75"
       x="1261.3927"
       y="-74.571281"
       id="text1382-0-09"
       transform="scale(1,-1)"><tspan
         sodipodi:role="line"
         id="tspan1380-6-717"
         x="1261.3927"
         y="-74.571281"
         style="font-style:normal;font-variant:normal;font-weight:bold;font-stretch:normal;font-size:20px;font-family:Helvetica;-inkscape-font-specification:'Helvetica Bold';fill:#ffffff;fill-opacity:1;stroke-width:0.75">YawCacheDrop</tspan></text>
    <text
       xml:space="preserve"
       style="font-style:normal;font-variant:normal;font-weight:bold;font-stretch:normal;font-size:20px;line-height:1.25;font-family:Helvetica;-inkscape-font-specification:'Helvetica Bold';fill:#000000;fill-opacity:1;stroke:none;stroke-width:0.75"
       x="152.7829"
       y="-87.129875"
       id="text1382-0-6-9"
       transform="scale(1,-1)"><tspan
         sodipodi:role="line"
         id="tspan1380-6-9-2"
         x="152.7829"
         y="-87.129875"
         style="font-style:normal;font-variant:normal;font-weight:bold;font-stretch:normal;font-size:20px;font-family:Helvetica;-inkscape-font-specification:'Helvetica Bold';text-align:center;text-anchor:middle;stroke-width:0.75">TableHandle</tspan><tspan
         sodipodi:role="line"
         x="152.7829"
         y="-62.129871"
         style="font-style:normal;font-variant:normal;font-weight:bold;font-stretch:normal;font-size:20px;font-family:Helvetica;-inkscape-font-specification:'Helvetica Bold';text-align:center;text-anchor:middle;stroke-width:0.75"
         id="tspan8911-30">(unknown randoms)</tspan></text>
    <path
       style="fill:none;stroke:#7e7e7e;stroke-width:3.75;stroke-linecap:butt;stroke-linejoin:round;stroke-dasharray:none;stroke-opacity:1;marker-end:url(#TriangleStart)"
       d="m 265.76142,79.810531 h 61.09992"
       id="path2803" />
    <path
       style="fill:none;stroke:#7e7e7e;stroke-width:3.75;stroke-linecap:butt;stroke-linejoin:round;stroke-dasharray:none;stroke-opacity:1;marker-end:url(#TriangleStart)"
       d="m 265.76142,198.24848 h 30.54996 c -0.33894,-39.47962 -0.15262,-78.95824 0,-118.437949 h 30.54996"
       id="path2805"
       sodipodi:nodetypes="cccc" />
    <path
       style="fill:none;stroke:#7e7e7e;stroke-width:3.75;stroke-linecap:butt;stroke-linejoin:round;stroke-dasharray:7.5,3.75;stroke-dashoffset:0;stroke-opacity:1;marker-end:url(#TriangleStart)"
       d="M 444.55469,289.03995 V 122.62109"
       id="path2807" />
    <path
       style="fill:none;stroke:#7e7e7e;stroke-width:3.75;stroke-linecap:butt;stroke-linejoin:round;stroke-dasharray:7.5,3.75;stroke-dashoffset:0;stroke-opacity:1;marker-end:url(#TriangleStart)"
       d="M 444.55469,392.58115 V 559.00002"
       id="path2809" />
    <path
       style="fill:none;stroke:#7e7e7e;stroke-width:3.75;stroke-linecap:butt;stroke-linejoin:round;stroke-dasharray:none;stroke-opacity:1;marker-end:url(#TriangleStart)"
       d="m 265.76142,483.37262 h 30.54996 c -0.27069,39.4795 -0.12214,78.95837 0,118.43793 l 30.54996,-3e-5"
       id="path2811"
       sodipodi:nodetypes="cccc" />
    <path
       style="fill:none;stroke:#7e7e7e;stroke-width:3.75;stroke-linecap:butt;stroke-linejoin:round;stroke-dasharray:none;stroke-opacity:1;marker-end:url(#TriangleStart)"
       d="m 265.76142,601.81057 61.09992,-5e-5"
       id="path2813" />
    <path
       style="fill:none;stroke:#7e7e7e;stroke-width:3.75;stroke-linecap:butt;stroke-linejoin:round;stroke-dasharray:none;stroke-opacity:1;marker-end:url(#TriangleStart)"
       d="m 562.24804,601.81052 65.79527,5e-5"
       id="path2815" />
    <path
       style="fill:none;stroke:#7e7e7e;stroke-width:3.75;stroke-linecap:butt;stroke-linejoin:round;stroke-dasharray:none;stroke-opacity:1;marker-end:url(#TriangleStart)"
       d="m 562.24804,79.810531 h 65.79527"
       id="path2817" />
    <path
       style="fill:none;stroke:#7e7e7e;stroke-width:3.75;stroke-linecap:butt;stroke-linejoin:round;stroke-dasharray:7.5,3.75;stroke-dashoffset:0;stroke-opacity:1;marker-end:url(#TriangleStart)"
       d="m 741.04136,392.58115 v 47.98091"
       id="path2819" />
    <path
       style="fill:none;stroke:#7e7e7e;stroke-width:3.75;stroke-linecap:butt;stroke-linejoin:round;stroke-dasharray:7.5,3.75;stroke-dashoffset:0;stroke-opacity:1;marker-end:url(#TriangleStart)"
       d="M 741.04136,289.03995 V 241.05903"
       id="path2821" />
    <path
       style="fill:none;stroke:#7e7e7e;stroke-width:3.75;stroke-linecap:butt;stroke-linejoin:round;stroke-dasharray:none;stroke-opacity:1;marker-end:url(#TriangleStart)"
       d="m 741.04136,108.95702 v 46.48091"
       id="path2823" />
    <path
       style="fill:none;stroke:#7e7e7e;stroke-width:3.75;stroke-linecap:butt;stroke-linejoin:round;stroke-dasharray:none;stroke-opacity:1;marker-end:url(#TriangleStart)"
       d="M 741.04136,572.66408 V 526.18317"
       id="path2825" />
    <path
       style="fill:none;stroke:#7e7e7e;stroke-width:3.75;stroke-linecap:butt;stroke-linejoin:round;stroke-dasharray:7.5,3.75;stroke-dashoffset:0;stroke-opacity:1;marker-end:url(#TriangleStart)"
       d="m 854.0394,601.81057 362.2824,-8e-5"
       id="path2827" />
    <path
       style="fill:none;stroke:#7e7e7e;stroke-width:3.75;stroke-linecap:butt;stroke-linejoin:round;stroke-dasharray:7.5,3.75;stroke-dashoffset:0;stroke-opacity:1;marker-end:url(#TriangleStart)"
       d="m 854.0394,79.810531 h 362.2824"
       id="path2829" />
    <path
       style="fill:none;stroke:#7e7e7e;stroke-width:3.75;stroke-linecap:butt;stroke-linejoin:miter;stroke-dasharray:none;stroke-opacity:1;marker-end:url(#TriangleStart)"
       d="m 858.73477,198.24843 65.79548,5e-5"
       id="path2831" />
    <path
       style="fill:none;stroke:#7e7e7e;stroke-width:3.75;stroke-linecap:butt;stroke-linejoin:round;stroke-dasharray:none;stroke-opacity:1;marker-end:url(#TriangleStart)"
       d="m 858.73477,483.37257 65.79548,5e-5"
       id="path2833" />
    <path
       style="fill:none;stroke:#7e7e7e;stroke-width:3.75;stroke-linecap:butt;stroke-linejoin:round;stroke-dasharray:none;stroke-opacity:1;marker-end:url(#TriangleStart)"
       d="m 1037.5283,454.22613 -5e-4,-70.60501"
       id="path2835" />
    <path
       style="fill:none;stroke:#7e7e7e;stroke-width:3.75;stroke-linecap:butt;stroke-linejoin:round;stroke-dasharray:none;stroke-opacity:1;marker-end:url(#TriangleStart)"
       d="m 1037.5283,227.39497 -5e-4,70.60505"
       id="path2837" />
    <path
       style="fill:none;stroke:#7e7e7e;stroke-width:3.75;stroke-linecap:butt;stroke-linejoin:round;stroke-dasharray:none;stroke-opacity:1;marker-end:url(#TriangleStart)"
       d="m 1155.2219,340.81052 65.7948,5e-5"
       id="path2839" />
    <path
       style="fill:none;stroke:#7e7e7e;stroke-width:3.75;stroke-linecap:butt;stroke-linejoin:round;stroke-dasharray:none;stroke-opacity:1;marker-end:url(#TriangleStart)"
       d="m 741.04136,572.66407 v -23.24045 l -159.95255,2.3e-4 V 198.24848 l 42.25915,-5e-5"
       id="path2896"
       sodipodi:nodetypes="ccccc" />
  </g>
</svg>
